<svg width="22" height="22" viewBox="0 0 22 22" fill="none" xmlns="http://www.w3.org/2000/svg">
<path d="M15.3434 15.188H15.0336L20.8128 20.9671L20.813 20.9674C20.8336 20.9879 20.8614 20.9994 20.8905 20.9995C20.9195 20.9995 20.9474 20.9879 20.9679 20.9674C20.9884 20.9469 21 20.919 21 20.89C21 20.8611 20.9886 20.8333 20.9682 20.8128L15.3434 15.188ZM15.3434 15.188L20.968 20.8125L15.3434 15.188ZM14.2917 14.446L14.2721 14.4264L13.5756 14.9659C12.0076 16.1804 10.0358 16.7519 8.06143 16.5642C6.08701 16.3765 4.25826 15.4436 2.94719 13.9555C1.63613 12.4673 0.941245 10.5355 1.0039 8.55321C1.06655 6.57088 1.88203 4.68687 3.28445 3.28445C4.68687 1.88203 6.57088 1.06655 8.55321 1.0039C10.5355 0.941245 12.4673 1.63613 13.9555 2.94719C15.4436 4.25826 16.3765 6.08701 16.5642 8.06143C16.7519 10.0358 16.1804 12.0076 14.9659 13.5756L14.2917 14.446ZM8.80041 16.399C10.816 16.399 12.749 15.5983 14.1742 14.1731C15.5994 12.7479 16.4001 10.8149 16.4001 8.79931C16.4001 6.78374 15.5994 4.85073 14.1742 3.42551C12.749 2.0003 10.816 1.19962 8.80041 1.19962C6.78484 1.19962 4.85183 2.0003 3.42661 3.42551C2.0014 4.85073 1.20072 6.78374 1.20072 8.79931C1.20072 10.8149 2.0014 12.7479 3.42661 14.1731C4.85183 15.5983 6.78484 16.399 8.80041 16.399Z" fill="white" stroke="white" stroke-width="2"/>
</svg>
