<svg width="27" height="28" viewBox="0 0 27 28" fill="none" xmlns="http://www.w3.org/2000/svg">
<path d="M13.4039 27.4329C20.8067 27.4329 26.8079 21.4317 26.8079 14.0289C26.8079 6.62615 20.8067 0.625 13.4039 0.625C6.00115 0.625 0 6.62615 0 14.0289C0 21.4317 6.00115 27.4329 13.4039 27.4329Z" fill="#A4AEBD"/>
<path fill-rule="evenodd" clip-rule="evenodd" d="M12.8983 19.9079H13.9504C13.9504 19.9079 14.2681 19.873 14.4304 19.6981C14.5797 19.5376 14.5749 19.236 14.5749 19.236C14.5749 19.236 14.5544 17.8244 15.2096 17.6165C15.8554 17.4117 16.6848 18.9808 17.5638 19.5842C18.2285 20.0408 18.7337 19.9406 18.7337 19.9406L21.0841 19.9079C21.0841 19.9079 22.3137 19.8322 21.7307 18.8654C21.6829 18.7863 21.3911 18.1503 19.9831 16.8433C18.5093 15.4754 18.7067 15.6966 20.482 13.3304C21.5632 11.8894 21.9954 11.0096 21.8604 10.6328C21.7316 10.2739 20.9364 10.3688 20.9364 10.3688L18.2899 10.3853C18.2899 10.3853 18.0938 10.3585 17.9483 10.4455C17.8061 10.5308 17.7146 10.7296 17.7146 10.7296C17.7146 10.7296 17.2957 11.8447 16.7371 12.7931C15.5586 14.7942 15.0875 14.8998 14.8949 14.7755C14.4469 14.4859 14.5587 13.6121 14.5587 12.9914C14.5587 11.0522 14.8528 10.2436 13.986 10.0343C13.6983 9.96475 13.4866 9.91887 12.7509 9.91146C11.8066 9.90167 11.0074 9.91433 10.5548 10.1361C10.2537 10.2835 10.0215 10.612 10.1629 10.6309C10.3378 10.6543 10.734 10.7377 10.944 11.0237C11.2152 11.3926 11.2057 12.2213 11.2057 12.2213C11.2057 12.2213 11.3615 14.5041 10.8418 14.7877C10.485 14.9822 9.99569 14.5851 8.94508 12.7696C8.40675 11.8397 8.00032 10.8118 8.00032 10.8118C8.00032 10.8118 7.92195 10.6197 7.78217 10.5169C7.61252 10.3924 7.3755 10.3528 7.3755 10.3528L4.86067 10.3693C4.86067 10.3693 4.48315 10.3798 4.34457 10.5439C4.22127 10.6899 4.33477 10.9919 4.33477 10.9919C4.33477 10.9919 6.30362 15.5982 8.53291 17.9195C10.577 20.0477 12.8983 19.9079 12.8983 19.9079Z" fill="#141516"/>
</svg>
