<svg width="40" height="40" viewBox="0 0 40 40" fill="none" xmlns="http://www.w3.org/2000/svg">
<path fill-rule="evenodd" clip-rule="evenodd" d="M28.4443 19.9112C28.4443 16.7693 30.9913 14.2223 34.1332 14.2223C37.2751 14.2223 39.8221 16.7693 39.8221 19.9112C39.8221 23.0531 37.2751 25.6001 34.1332 25.6001C30.9913 25.6001 28.4443 23.0531 28.4443 19.9112Z" fill="#026EC2"/>
<path fill-rule="evenodd" clip-rule="evenodd" d="M0 19.9112C0 16.7693 2.547 14.2223 5.68889 14.2223C8.83078 14.2223 11.3778 16.7693 11.3778 19.9112C11.3778 23.0531 8.83078 25.6001 5.68889 25.6001C2.547 25.6001 0 23.0531 0 19.9112Z" fill="#026EC2"/>
<path fill-rule="evenodd" clip-rule="evenodd" d="M14.2222 34.1333C14.2222 30.9915 16.7692 28.4445 19.9111 28.4445C23.0529 28.4445 25.5999 30.9915 25.5999 34.1333C25.5999 37.2752 23.0529 39.8222 19.9111 39.8222C16.7692 39.8222 14.2222 37.2752 14.2222 34.1333Z" fill="#0223EB"/>
<path fill-rule="evenodd" clip-rule="evenodd" d="M14.2222 5.68889C14.2222 2.547 16.7692 0 19.9111 0C23.0529 0 25.5999 2.547 25.5999 5.68889C25.5999 8.83078 23.0529 11.3778 19.9111 11.3778C16.7692 11.3778 14.2222 8.83078 14.2222 5.68889Z" fill="#0223EB"/>
</svg>
