<svg width="27" height="27" viewBox="0 0 27 27" fill="none" xmlns="http://www.w3.org/2000/svg">
<path fill-rule="evenodd" clip-rule="evenodd" d="M17.4767 7.16394H9.45113C8.17013 7.16394 7.12793 8.20614 7.12793 9.48714V17.5127C7.12793 18.7937 8.17013 19.8362 9.45113 19.8362H17.4767C18.7577 19.8362 19.8002 18.794 19.8002 17.5127V9.48714C19.8002 8.20614 18.758 7.16394 17.4767 7.16394ZM13.4639 17.6718C11.1638 17.6718 9.29239 15.8004 9.29239 13.5C9.29239 11.1999 11.1638 9.32846 13.4639 9.32846C15.7643 9.32846 17.6357 11.1999 17.6357 13.5C17.6357 15.8001 15.764 17.6718 13.4639 17.6718ZM16.7826 9.20395C16.7826 9.74814 17.2254 10.1909 17.7699 10.1909C18.3141 10.1909 18.7569 9.74814 18.7569 9.20395C18.7569 8.65975 18.3141 8.21695 17.7699 8.21695C17.2254 8.21695 16.7826 8.65975 16.7826 9.20395Z" fill="#A4AEBD"/>
<path d="M13.4637 11.0913C12.1359 11.0913 11.0547 12.1719 11.0547 13.4997C11.0547 14.8281 12.1359 15.909 13.4637 15.909C14.7921 15.909 15.8724 14.8281 15.8724 13.4997C15.8724 12.1722 14.7918 11.0913 13.4637 11.0913Z" fill="#A4AEBD"/>
<path fill-rule="evenodd" clip-rule="evenodd" d="M0 13.4637C0 6.0282 6.0282 0 13.4637 0C20.8992 0 26.9274 6.0282 26.9274 13.4637C26.9274 20.8992 20.8992 26.9274 13.4637 26.9274C6.0282 26.9274 0 20.8992 0 13.4637ZM17.4765 21.5988C19.7298 21.5988 21.5625 19.7661 21.5625 17.5128V9.48718C21.5625 7.23418 19.7298 5.40118 17.4765 5.40118H9.45093C7.19793 5.40118 5.36493 7.23418 5.36493 9.48718V17.5128C5.36493 19.7661 7.19793 21.5988 9.45093 21.5988H17.4765Z" fill="#A4AEBD"/>
</svg>
