<svg width="23" height="21" viewBox="0 0 23 21" fill="none" xmlns="http://www.w3.org/2000/svg">
<path d="M10.5866 1.04906C10.939 0.258572 12.061 0.258571 12.4134 1.04906L14.7184 6.22022C14.8637 6.54625 15.1718 6.7701 15.5268 6.80756L21.1572 7.40182C22.0179 7.49266 22.3646 8.55976 21.7217 9.13915L17.5159 12.9294C17.2507 13.1683 17.1331 13.5305 17.2071 13.8797L18.3818 19.4181C18.5614 20.2648 17.6537 20.9243 16.904 20.4919L11.9996 17.6632C11.6904 17.4848 11.3096 17.4848 11.0004 17.6632L6.09602 20.4919C5.34632 20.9243 4.43859 20.2648 4.61816 19.4181L5.79287 13.8797C5.86693 13.5305 5.74925 13.1683 5.48409 12.9294L1.27832 9.13915C0.635406 8.55976 0.982126 7.49266 1.84281 7.40182L7.47318 6.80756C7.82816 6.7701 8.13626 6.54625 8.28158 6.22022L10.5866 1.04906Z" fill="#FFD600"/>
</svg>
