<svg width="27" height="27" viewBox="0 0 27 27" fill="none" xmlns="http://www.w3.org/2000/svg">
<path d="M13.4039 26.8079C20.8067 26.8079 26.8079 20.8067 26.8079 13.4039C26.8079 6.00115 20.8067 0 13.4039 0C6.00115 0 0 6.00115 0 13.4039C0 20.8067 6.00115 26.8079 13.4039 26.8079Z" fill="#A4AEBD"/>
<path fill-rule="evenodd" clip-rule="evenodd" d="M12.8978 19.2828H13.9499C13.9499 19.2828 14.2677 19.2479 14.4299 19.073C14.5792 18.9124 14.5744 18.6109 14.5744 18.6109C14.5744 18.6109 14.5539 17.1993 15.2091 16.9914C15.8549 16.7866 16.6843 18.3557 17.5633 18.959C18.2281 19.4156 18.7332 19.3155 18.7332 19.3155L21.0836 19.2828C21.0836 19.2828 22.3132 19.207 21.7302 18.2403C21.6824 18.1612 21.3906 17.5252 19.9826 16.2182C18.5088 14.8503 18.7062 15.0715 20.4815 12.7053C21.5627 11.2643 21.9949 10.3845 21.8599 10.0077C21.7311 9.64881 20.9359 9.74367 20.9359 9.74367L18.2895 9.76015C18.2895 9.76015 18.0933 9.73339 17.9478 9.82037C17.8056 9.90567 17.7141 10.1045 17.7141 10.1045C17.7141 10.1045 17.2952 11.2196 16.7366 12.1679C15.5582 14.169 15.087 14.2747 14.8944 14.1504C14.4464 13.8608 14.5582 12.987 14.5582 12.3663C14.5582 10.427 14.8523 9.61846 13.9855 9.40915C13.6978 9.33962 13.4861 9.29375 12.7504 9.28634C11.8061 9.27654 11.0069 9.28921 10.5543 9.51094C10.2533 9.65837 10.021 9.98691 10.1625 10.0058C10.3374 10.0292 10.7335 10.1126 10.9435 10.3986C11.2147 10.7675 11.2052 11.5962 11.2052 11.5962C11.2052 11.5962 11.361 13.879 10.8413 14.1626C10.4845 14.3571 9.9952 13.96 8.94459 12.1445C8.40626 11.2146 7.99983 10.1867 7.99983 10.1867C7.99983 10.1867 7.92146 9.99455 7.78168 9.89181C7.61203 9.76732 7.37501 9.72766 7.37501 9.72766L4.86018 9.74415C4.86018 9.74415 4.48266 9.75466 4.34408 9.91881C4.22079 10.0648 4.33428 10.3668 4.33428 10.3668C4.33428 10.3668 6.30313 14.9731 8.53242 17.2944C10.5765 19.4226 12.8978 19.2828 12.8978 19.2828Z" fill="white"/>
</svg>
