<svg width="6" height="22" viewBox="0 0 6 22" fill="none" xmlns="http://www.w3.org/2000/svg">
<path d="M0.847855 0.399902H4.99186L4.29186 13.5039H1.51986L0.847855 0.399902ZM2.91986 21.1959C2.26652 21.1959 1.72519 20.9906 1.29586 20.5799C0.866522 20.1506 0.651855 19.6279 0.651855 19.0119C0.651855 18.3959 0.866522 17.8826 1.29586 17.4719C1.72519 17.0612 2.26652 16.8559 2.91986 16.8559C3.55452 16.8559 4.07719 17.0612 4.48786 17.4719C4.91719 17.8826 5.13186 18.3959 5.13186 19.0119C5.13186 19.6279 4.91719 20.1506 4.48786 20.5799C4.07719 20.9906 3.55452 21.1959 2.91986 21.1959Z" fill="white"/>
</svg>
