<svg width="24" height="24" viewBox="0 0 24 24" fill="none" xmlns="http://www.w3.org/2000/svg">
<g clip-path="url(#clip0)">
<path d="M12.3067 10.5333C9.28 9.74667 8.30667 8.93333 8.30667 7.66667C8.30667 6.21333 9.65333 5.2 11.9067 5.2C14.28 5.2 15.16 6.33333 15.24 8H18.1867C18.0933 5.70667 16.6933 3.6 13.9067 2.92V0H9.90667V2.88C7.32 3.44 5.24 5.12 5.24 7.69333C5.24 10.7733 7.78667 12.3067 11.5067 13.2C14.84 14 15.5067 15.1733 15.5067 16.4133C15.5067 17.3333 14.8533 18.8 11.9067 18.8C9.16 18.8 8.08 17.5733 7.93333 16H5C5.16 18.92 7.34667 20.56 9.90667 21.1067V24H13.9067V21.1333C16.5067 20.64 18.5733 19.1333 18.5733 16.4C18.5733 12.6133 15.3333 11.32 12.3067 10.5333Z" fill="white" stroke="#026EC2" stroke-width="0.6"/>
</g>
<defs>
<clipPath id="clip0">
<rect width="24" height="24" fill="white"/>
</clipPath>
</defs>
</svg>
