<svg width="24" height="24" viewBox="0 0 24 24" fill="none" xmlns="http://www.w3.org/2000/svg">
<path d="M18.4942 8.81252H16.8049V4.95798C16.8049 2.22413 14.5339 0 11.7424 0C8.95097 0 6.67991 2.22413 6.67991 4.95798V8.81252H4.99415C3.44333 8.81252 2.18164 10.0742 2.18164 11.625V21.1875C2.18164 22.7384 3.44333 24 4.99415 24H18.4942C20.045 24 21.3067 22.7384 21.3067 21.1875V11.625C21.3067 10.0742 20.045 8.81252 18.4942 8.81252ZM8.55492 4.95798C8.55492 3.25801 9.98484 1.875 11.7424 1.875C13.5 1.875 14.9299 3.25801 14.9299 4.95798V8.81252H8.55492V4.95798ZM19.4317 21.1875C19.4317 21.7045 19.0111 22.125 18.4942 22.125H4.99415C4.47721 22.125 4.05664 21.7045 4.05664 21.1875V11.625C4.05664 11.1081 4.47721 10.6875 4.99415 10.6875H18.4942C19.0111 10.6875 19.4317 11.1081 19.4317 11.625V21.1875Z" fill="white"/>
<path d="M11.5527 13.4062C10.5948 13.4062 9.81836 14.1827 9.81836 15.1406C9.81836 15.7523 10.1352 16.2895 10.6135 16.5983V18.6563C10.6135 19.174 11.0332 19.5938 11.551 19.5938C12.0687 19.5938 12.4885 19.174 12.4885 18.6563V16.6006C12.9687 16.2921 13.2871 15.7538 13.2871 15.1406C13.2871 14.1827 12.5106 13.4062 11.5527 13.4062Z" fill="white"/>
</svg>
