<svg width="26" height="26" viewBox="0 0 26 26" fill="none" xmlns="http://www.w3.org/2000/svg">
<path d="M21.1354 3.54565H4.86495C3.04639 3.54565 1.56689 5.02515 1.56689 6.84371V19.1565C1.56689 20.975 3.04639 22.4545 4.86495 22.4545H21.1354C22.954 22.4545 24.4335 20.975 24.4335 19.1565V6.84371C24.4335 5.02515 22.954 3.54565 21.1354 3.54565ZM23.1143 14.9789H18.2771C17.186 14.9789 16.2982 14.0913 16.2982 13.0001C16.2982 11.9089 17.1859 11.0212 18.2771 11.0212H23.1143V14.9789ZM23.1143 9.70204H18.2771C16.4585 9.70204 14.979 11.1815 14.979 13.0001C14.979 14.8187 16.4585 16.2982 18.2771 16.2982H23.1143V19.1565C23.1143 20.2476 22.2266 21.1353 21.1354 21.1353H4.86495C3.77383 21.1353 2.8861 20.2476 2.8861 19.1565V6.84371C2.8861 5.75259 3.77379 4.86486 4.86495 4.86486H21.1354C22.2265 4.86486 23.1143 5.75255 23.1143 6.84371V9.70204Z" fill="white" stroke="white" stroke-width="0.590909"/>
<path d="M20 12.25H19C18.5858 12.25 18.25 12.5858 18.25 13C18.25 13.4142 18.5858 13.75 19 13.75H20C20.4142 13.75 20.75 13.4142 20.75 13C20.75 12.5858 20.4142 12.25 20 12.25Z" fill="white"/>
</svg>
